<svg id="Layer_3" enable-background="new 0 0 64 64" height="512" viewBox="0 0 64 64" width="512" xmlns="http://www.w3.org/2000/svg"><g><path d="m6 27h8c.552 0 1-.448 1-1v-8c0-.552-.448-1-1-1h-8c-.552 0-1 .448-1 1v8c0 .552.448 1 1 1zm1-8h6v6h-6z"/><path d="m14 41h-8c-.552 0-1 .447-1 1v8c0 .553.448 1 1 1h8c.552 0 1-.447 1-1v-8c0-.553-.448-1-1-1zm-1 8h-6v-6h6z"/><path d="m17 7h22v2h-22z"/><path d="m17 11h22v2h-22z"/><path d="m17 19h22v2h-22z"/><path d="m17 23h22v2h-22z"/><path d="m13.586 5h-7.586c-.552 0-1 .448-1 1v8c0 .552.448 1 1 1h8c.552 0 1-.448 1-1v-7.586l1.707-1.707-1.414-1.414zm-2 2-4.586 4.586v-4.586zm1.414 6h-4.586l4.586-4.586z"/><path d="m15.293 27.293-1.707 1.707h-7.586c-.552 0-1 .448-1 1v8c0 .553.448 1 1 1h8c.552 0 1-.447 1-1v-7.586l1.707-1.707zm-3.707 3.707-4.586 4.586v-4.586zm1.414 6h-4.586l4.586-4.586z"/><path d="m62 63c.552 0 1-.447 1-1v-18c0-.553-.448-1-1-1h-5v-15c0-.552-.448-1-1-1h-13v-25c0-.552-.448-1-1-1h-40c-.552 0-1 .448-1 1v52c0 .553.448 1 1 1h15v7c0 .553.448 1 1 1zm-13-18h4v4h-4zm-12-2v-14h6v5c0 .553.448 1 1 1h4c.552 0 1-.447 1-1v-5h6v14zm8-14h2v4h-2zm-28 15v9h-14v-50h38v24h-5c-.552 0-1 .448-1 1v3h-18v2h18v2h-18v2h18v6h-17c-.552 0-1 .447-1 1zm10 1h4v4h-4zm-8 0h6v5c0 .553.448 1 1 1h6c.552 0 1-.447 1-1v-5h6v16h-20zm42 16h-20v-16h6v5c0 .553.448 1 1 1h6c.552 0 1-.447 1-1v-5h6z"/><path d="m55 57h4v2h-4z"/><path d="m49 39h4v2h-4z"/><path d="m55 53h4v2h-4z"/><path d="m33 57h4v2h-4z"/><path d="m33 53h4v2h-4z"/></g></svg>